<?xml version="1.0" encoding="UTF-8" standalone="no"?>
<svg
   xmlns:dc="http://purl.org/dc/elements/1.1/"
   xmlns:cc="http://creativecommons.org/ns#"
   xmlns:rdf="http://www.w3.org/1999/02/22-rdf-syntax-ns#"
   xmlns:svg="http://www.w3.org/2000/svg"
   xmlns="http://www.w3.org/2000/svg"
   xmlns:sodipodi="http://sodipodi.sourceforge.net/DTD/sodipodi-0.dtd"
   xmlns:inkscape="http://www.inkscape.org/namespaces/inkscape"
   sodipodi:docname="icon_vtouch.svg"
   inkscape:version="1.0 (4035a4fb49, 2020-05-01)"
   width="128.0px"
   height="128.0px"
   viewBox="0 0 128.0 128.0"
   version="1.1"
   id="SVGRoot">
  <defs
     id="defs132" />
  <sodipodi:namedview
     inkscape:pagecheckerboard="true"
     inkscape:window-maximized="0"
     inkscape:window-y="850"
     inkscape:window-x="6211"
     inkscape:window-height="1380"
     inkscape:window-width="1839"
     showgrid="true"
     inkscape:document-rotation="0"
     inkscape:current-layer="g114"
     inkscape:document-units="px"
     inkscape:cy="87.796517"
     inkscape:cx="92.032697"
     inkscape:zoom="5.6"
     inkscape:pageshadow="2"
     inkscape:pageopacity="0.0"
     borderopacity="1.0"
     bordercolor="#666666"
     pagecolor="#ffffff"
     id="base">
    <inkscape:grid
       type="xygrid"
       id="grid141" />
  </sodipodi:namedview>
  <metadata
     id="metadata135">
    <rdf:RDF>
      <cc:Work
         rdf:about="">
        <dc:format>image/svg+xml</dc:format>
        <dc:type
           rdf:resource="http://purl.org/dc/dcmitype/StillImage" />
        <dc:title></dc:title>
      </cc:Work>
    </rdf:RDF>
  </metadata>
  <g
     id="layer1"
     inkscape:groupmode="layer"
     inkscape:label="Layer 1">
    <g
       transform="matrix(0.17017484,0,0,0.17017484,-6.1202472,8.8405257)"
       id="g114">
      <title
         id="title72">Layer 1</title>
      <g
         id="svg_7" />
      <g
         id="svg_8" />
      <g
         id="svg_9" />
      <g
         id="svg_10" />
      <g
         id="svg_11" />
      <g
         id="svg_12" />
      <g
         id="svg_13" />
      <g
         id="svg_14" />
      <g
         id="svg_15" />
      <g
         id="svg_16" />
      <g
         id="svg_17" />
      <g
         id="svg_18" />
      <g
         id="svg_19" />
      <g
         id="svg_20" />
      <g
         id="svg_21" />
      <g
         stroke="null"
         id="svg_43">
        <g
           stroke="null"
           transform="matrix(17.846691,0,0,17.846691,29.565172,14.791875)"
           id="svg_26">
          <path
             fill="#76b900"
             stroke="null"
             id="svg_27"
             d="m 25.346184,19.308908 c 0,3.217 -2.617,5.834 -5.834,5.834 -3.217,0 -5.833,-2.617 -5.833,-5.834 0,-3.217 2.616,-5.834 5.833,-5.834 3.217,0 5.834,2.618 5.834,5.834 z m 12.253,-8.284 v 16.57 c 0,2.209 -1.791,4 -4,4 h -28.174 c -2.209,0 -4,-1.791 -4,-4 v -16.57 c 0,-2.209 1.791,-4 4,-4 h 4.92 v -1.384 c 0,-1.933 1.566,-3.5 3.5,-3.5 h 11.334 c 1.934,0 3.5,1.567 3.5,3.5 v 1.383 h 4.92 c 2.209,0.001 4,1.792 4,4.001 z m -9.253,8.284 c 0,-4.871 -3.963,-8.834 -8.834,-8.834 -4.87,0 -8.833,3.963 -8.833,8.834 0,4.871 3.963,8.834 8.833,8.834 4.871,0 8.834,-3.963 8.834,-8.834 z" />
        </g>
        <g
           stroke="null"
           transform="matrix(17.846691,0,0,17.846691,29.565172,14.791875)"
           id="svg_28" />
        <g
           stroke="null"
           transform="matrix(17.846691,0,0,17.846691,29.565172,14.791875)"
           id="svg_29" />
        <g
           stroke="null"
           transform="matrix(17.846691,0,0,17.846691,29.565172,14.791875)"
           id="svg_30" />
        <g
           stroke="null"
           transform="matrix(17.846691,0,0,17.846691,29.565172,14.791875)"
           id="svg_31" />
        <g
           stroke="null"
           transform="matrix(17.846691,0,0,17.846691,29.565172,14.791875)"
           id="svg_32" />
        <g
           stroke="null"
           transform="matrix(17.846691,0,0,17.846691,29.565172,14.791875)"
           id="svg_33" />
        <g
           stroke="null"
           transform="matrix(17.846691,0,0,17.846691,29.565172,14.791875)"
           id="svg_34" />
        <g
           stroke="null"
           transform="matrix(17.846691,0,0,17.846691,29.565172,14.791875)"
           id="svg_35" />
        <g
           stroke="null"
           transform="matrix(17.846691,0,0,17.846691,29.565172,14.791875)"
           id="svg_36" />
        <g
           stroke="null"
           transform="matrix(17.846691,0,0,17.846691,29.565172,14.791875)"
           id="svg_37" />
        <g
           stroke="null"
           transform="matrix(17.846691,0,0,17.846691,29.565172,14.791875)"
           id="svg_38" />
        <g
           stroke="null"
           transform="matrix(17.846691,0,0,17.846691,29.565172,14.791875)"
           id="svg_39" />
        <g
           stroke="null"
           transform="matrix(17.846691,0,0,17.846691,29.565172,14.791875)"
           id="svg_40" />
        <g
           stroke="null"
           transform="matrix(17.846691,0,0,17.846691,29.565172,14.791875)"
           id="svg_41" />
        <g
           stroke="null"
           transform="matrix(17.846691,0,0,17.846691,29.565172,14.791875)"
           id="svg_42" />
      </g>
      <g
         transform="translate(20.673852,32.422989)"
         id="svg_1">
        <g
           id="svg_2">
          <path
             fill="#ffffff"
             id="svg_3"
             d="m 721.827,397.347 -80.213,-88.149 c -15.872,-15.872 -41.728,-15.893 -57.749,0.128 -5.077,5.077 -8.533,11.157 -10.325,17.643 -15.957,-12.224 -38.976,-11.008 -53.675,3.691 -5.056,5.077 -8.512,11.157 -10.347,17.621 -15.957,-12.181 -38.976,-10.987 -53.653,3.712 -4.971,4.971 -8.384,10.901 -10.24,17.216 l -37.803,-37.803 c -15.872,-15.872 -41.728,-15.893 -57.749,0.128 -15.893,15.872 -15.893,41.728 0,57.621 l 145.237,145.237 -86.144,13.525 c -23.275,3.328 -40.832,23.552 -40.832,47.083 0,17.643 14.357,32 32,32 h 201.152 c 31.339,0 60.8,-12.203 82.965,-34.368 l 33.557,-33.557 c 22.144,-22.123 34.325,-51.563 34.325,-82.859 0,-29.227 -10.837,-57.237 -30.506,-78.869 z"
             sodipodi:nodetypes="ccscccccscsccsssscsc" />
        </g>
      </g>
      <g
         transform="matrix(1.4351084,0,0,1.4351084,-163.23809,-155.11789)"
         id="svg_4">
        <g
           id="svg_5">
          <path
             fill="#ffffff"
             id="svg_6"
             d="M 466.381,320.931 C 450.851,286.563 416.547,264.333 379,264.333 c -52.928,0 -96,43.072 -96,96 0,37.547 22.229,71.851 56.597,87.403 1.429,0.64 2.923,0.939 4.395,0.939 4.053,0 7.936,-2.347 9.728,-6.272 2.411,-5.376 0.021,-11.691 -5.333,-14.123 -26.752,-12.096 -44.053,-38.763 -44.053,-67.947 0,-41.173 33.493,-74.667 74.667,-74.667 29.184,0 55.851,17.301 67.947,44.053 2.411,5.376 8.747,7.787 14.101,5.333 5.375,-2.431 7.764,-8.745 5.332,-14.121 z" />
        </g>
      </g>
      <path
         id="svg_62"
         d="M 303.5,631"
         opacity="0.5"
         stroke-width="1.5"
         stroke="#000000"
         fill="#000000" />
    </g>
  </g>
</svg>
