<?xml version="1.0" encoding="UTF-8" standalone="no"?>
<svg
   xmlns:dc="http://purl.org/dc/elements/1.1/"
   xmlns:cc="http://creativecommons.org/ns#"
   xmlns:rdf="http://www.w3.org/1999/02/22-rdf-syntax-ns#"
   xmlns:svg="http://www.w3.org/2000/svg"
   xmlns="http://www.w3.org/2000/svg"
   xmlns:sodipodi="http://sodipodi.sourceforge.net/DTD/sodipodi-0.dtd"
   xmlns:inkscape="http://www.inkscape.org/namespaces/inkscape"
   id="SVGRoot"
   version="1.1"
   viewBox="0 0 128.0 128.0"
   height="128.0px"
   width="128.0px"
   inkscape:version="1.0 (4035a4fb49, 2020-05-01)"
   sodipodi:docname="icon_vtouch_inactive.svg">
  <defs
     id="defs132" />
  <sodipodi:namedview
     id="base"
     pagecolor="#ffffff"
     bordercolor="#666666"
     borderopacity="1.0"
     inkscape:pageopacity="0.0"
     inkscape:pageshadow="2"
     inkscape:zoom="5.6"
     inkscape:cx="79.018186"
     inkscape:cy="82.302557"
     inkscape:document-units="px"
     inkscape:current-layer="g114"
     inkscape:document-rotation="0"
     showgrid="true"
     inkscape:window-width="1839"
     inkscape:window-height="1380"
     inkscape:window-x="6211"
     inkscape:window-y="850"
     inkscape:window-maximized="0"
     inkscape:pagecheckerboard="true">
    <inkscape:grid
       id="grid141"
       type="xygrid" />
  </sodipodi:namedview>
  <metadata
     id="metadata135">
    <rdf:RDF>
      <cc:Work
         rdf:about="">
        <dc:format>image/svg+xml</dc:format>
        <dc:type
           rdf:resource="http://purl.org/dc/dcmitype/StillImage" />
        <dc:title></dc:title>
      </cc:Work>
    </rdf:RDF>
  </metadata>
  <g
     inkscape:label="Layer 1"
     inkscape:groupmode="layer"
     id="layer1">
    <g
       id="g114"
       transform="matrix(0.17017484,0,0,0.17017484,-6.1202472,8.8405257)">
      <title
         id="title72">Layer 1</title>
      <g
         id="svg_7" />
      <g
         id="svg_8" />
      <g
         id="svg_9" />
      <g
         id="svg_10" />
      <g
         id="svg_11" />
      <g
         id="svg_12" />
      <g
         id="svg_13" />
      <g
         id="svg_14" />
      <g
         id="svg_15" />
      <g
         id="svg_16" />
      <g
         id="svg_17" />
      <g
         id="svg_18" />
      <g
         id="svg_19" />
      <g
         id="svg_20" />
      <g
         id="svg_21" />
      <g
         id="svg_43"
         stroke="null">
        <g
           id="svg_26"
           transform="matrix(17.846691,0,0,17.846691,29.565172,14.791875)"
           stroke="null">
          <path
             d="m 25.346184,19.308908 c 0,3.217 -2.617,5.834 -5.834,5.834 -3.217,0 -5.833,-2.617 -5.833,-5.834 0,-3.217 2.616,-5.834 5.833,-5.834 3.217,0 5.834,2.618 5.834,5.834 z m 12.253,-8.284 v 16.57 c 0,2.209 -1.791,4 -4,4 h -28.174 c -2.209,0 -4,-1.791 -4,-4 v -16.57 c 0,-2.209 1.791,-4 4,-4 h 4.92 v -1.384 c 0,-1.933 1.566,-3.5 3.5,-3.5 h 11.334 c 1.934,0 3.5,1.567 3.5,3.5 v 1.383 h 4.92 c 2.209,0.001 4,1.792 4,4.001 z m -9.253,8.284 c 0,-4.871 -3.963,-8.834 -8.834,-8.834 -4.87,0 -8.833,3.963 -8.833,8.834 0,4.871 3.963,8.834 8.833,8.834 4.871,0 8.834,-3.963 8.834,-8.834 z"
             id="svg_27"
             stroke="null"
             fill="#76b900" />
        </g>
        <g
           id="svg_28"
           transform="matrix(17.846691,0,0,17.846691,29.565172,14.791875)"
           stroke="null" />
        <g
           id="svg_29"
           transform="matrix(17.846691,0,0,17.846691,29.565172,14.791875)"
           stroke="null" />
        <g
           id="svg_30"
           transform="matrix(17.846691,0,0,17.846691,29.565172,14.791875)"
           stroke="null" />
        <g
           id="svg_31"
           transform="matrix(17.846691,0,0,17.846691,29.565172,14.791875)"
           stroke="null" />
        <g
           id="svg_32"
           transform="matrix(17.846691,0,0,17.846691,29.565172,14.791875)"
           stroke="null" />
        <g
           id="svg_33"
           transform="matrix(17.846691,0,0,17.846691,29.565172,14.791875)"
           stroke="null" />
        <g
           id="svg_34"
           transform="matrix(17.846691,0,0,17.846691,29.565172,14.791875)"
           stroke="null" />
        <g
           id="svg_35"
           transform="matrix(17.846691,0,0,17.846691,29.565172,14.791875)"
           stroke="null" />
        <g
           id="svg_36"
           transform="matrix(17.846691,0,0,17.846691,29.565172,14.791875)"
           stroke="null" />
        <g
           id="svg_37"
           transform="matrix(17.846691,0,0,17.846691,29.565172,14.791875)"
           stroke="null" />
        <g
           id="svg_38"
           transform="matrix(17.846691,0,0,17.846691,29.565172,14.791875)"
           stroke="null" />
        <g
           id="svg_39"
           transform="matrix(17.846691,0,0,17.846691,29.565172,14.791875)"
           stroke="null" />
        <g
           id="svg_40"
           transform="matrix(17.846691,0,0,17.846691,29.565172,14.791875)"
           stroke="null" />
        <g
           id="svg_41"
           transform="matrix(17.846691,0,0,17.846691,29.565172,14.791875)"
           stroke="null" />
        <g
           id="svg_42"
           transform="matrix(17.846691,0,0,17.846691,29.565172,14.791875)"
           stroke="null" />
      </g>
      <g
         id="svg_1"
         transform="translate(20.673852,32.422989)">
        <g
           id="svg_2">
          <path
             sodipodi:nodetypes="ccscccccscsccsssscsc"
             d="m 721.827,397.347 -80.213,-88.149 c -15.872,-15.872 -41.728,-15.893 -57.749,0.128 -5.077,5.077 -8.533,11.157 -10.325,17.643 -15.957,-12.224 -38.976,-11.008 -53.675,3.691 -5.056,5.077 -8.512,11.157 -10.347,17.621 -15.957,-12.181 -38.976,-10.987 -53.653,3.712 -4.971,4.971 -8.384,10.901 -10.24,17.216 l -37.803,-37.803 c -15.872,-15.872 -41.728,-15.893 -57.749,0.128 -15.893,15.872 -15.893,41.728 0,57.621 l 145.237,145.237 -86.144,13.525 c -23.275,3.328 -40.832,23.552 -40.832,47.083 0,17.643 14.357,32 32,32 h 201.152 c 31.339,0 60.8,-12.203 82.965,-34.368 l 33.557,-33.557 c 22.144,-22.123 34.325,-51.563 34.325,-82.859 0,-29.227 -10.837,-57.237 -30.506,-78.869 z"
             id="svg_3"
             fill="#ffffff" />
        </g>
      </g>
      <g
         id="svg_4"
         transform="matrix(1.4351084,0,0,1.4351084,-163.23809,-155.11789)">
        <g
           id="svg_5">
          <path
             d="M 466.381,320.931 C 450.851,286.563 416.547,264.333 379,264.333 c -52.928,0 -96,43.072 -96,96 0,37.547 22.229,71.851 56.597,87.403 1.429,0.64 2.923,0.939 4.395,0.939 4.053,0 7.936,-2.347 9.728,-6.272 2.411,-5.376 0.021,-11.691 -5.333,-14.123 -26.752,-12.096 -44.053,-38.763 -44.053,-67.947 0,-41.173 33.493,-74.667 74.667,-74.667 29.184,0 55.851,17.301 67.947,44.053 2.411,5.376 8.747,7.787 14.101,5.333 5.375,-2.431 7.764,-8.745 5.332,-14.121 z"
             id="svg_6"
             fill="#ffffff" />
        </g>
      </g>
      <path
         fill="#000000"
         stroke="#000000"
         stroke-width="1.5"
         opacity="0.5"
         d="M 303.5,631"
         id="svg_62" />
      <path
         transform="matrix(5.8763093,0,0,5.8763093,35.964466,-51.949664)"
         id="path58"
         d="m 14.086268,107.14905 c -0.196428,-0.0387 -0.799107,-0.15835 -1.339285,-0.26593 -4.1878851,-0.834 -7.7947421,-4.31554 -9.046834,-8.732512 C 3.3882015,97.05016 3.3719827,95.660305 3.3719827,70.02866 c 0,-25.360564 0.019015,-27.03332 0.3197067,-28.125 0.9792418,-3.555197 3.3456351,-6.392549 6.6497016,-7.973127 2.236731,-1.069992 2.842297,-1.127472 11.91452,-1.130915 l 8.169643,-0.0031 v -2.739292 c 0,-2.153467 0.07627,-3.037504 0.356632,-4.133713 0.945915,-3.698489 3.785684,-6.562567 7.520118,-7.58449 1.342527,-0.367381 1.586627,-0.371274 20.267857,-0.323254 l 18.908965,0.04861 1.173594,0.39915 c 2.581904,0.87813 4.87629,2.882515 6.068436,5.301411 0.955145,1.938017 1.233246,3.396388 1.237012,6.486939 l 0.0031,2.544643 h 8.134392 c 9.21693,0 9.63382,0.04445 12.22275,1.303332 2.16467,1.052579 4.29415,3.171468 5.33031,5.303811 1.33685,2.75113 1.27691,1.858168 1.27622,19.010732 l -5.3e-4,15.364268 -1.29292,-1.428572 c -4.85534,-5.364762 -5.56369,-6.059237 -6.83016,-6.696428 -1.18459,-0.595998 -1.32944,-0.625 -3.12147,-0.625 -1.66514,0 -1.995558,0.05452 -2.900313,0.478582 -1.349946,0.63272 -2.663577,1.888004 -3.291443,3.145248 -0.279896,0.560464 -0.524764,1.048282 -0.544152,1.08404 -0.01939,0.03575 -0.300637,-0.09721 -0.625,-0.295475 -2.631841,-1.608718 -6.662775,-1.007897 -8.684225,1.294407 L 85.11967,71.322079 85.016567,68.889655 C 84.895976,66.044722 84.56264,64.167583 83.722715,61.603522 80.610765,52.103813 72.559335,45.176644 62.657697,43.479978 c -2.981095,-0.510816 -7.671146,-0.390322 -10.446429,0.268385 -5.167835,1.226575 -9.297417,3.528258 -13.033657,7.264497 -2.239159,2.239159 -3.615755,4.124627 -4.988582,6.832659 -1.257836,2.481198 -2.063957,4.927502 -2.543566,7.718855 -0.472241,2.748466 -0.384528,7.452041 0.186484,10 2.383189,10.634241 10.570589,18.721911 21.075311,20.818597 5.111962,1.020319 11.080777,0.413182 15.732496,-1.600284 l 1.696341,-0.73425 5.581241,5.579132 c 3.069682,3.068521 5.520615,5.597211 5.446516,5.619311 -0.0741,0.0221 -2.97578,0.48427 -6.448178,1.02705 l -6.31345,0.98687 -27.079407,-0.0207 c -14.893674,-0.0114 -27.24012,-0.0524 -27.436549,-0.091 z"
         style="fill:#a0a0a0;stroke:none;stroke-width:0.178571" />
      <path
         transform="matrix(5.8763093,0,0,5.8763093,35.964466,-51.949664)"
         id="path60"
         d="m 55.049544,87.340013 c -5.447241,-0.986182 -10.165653,-4.576826 -12.658293,-9.632782 -1.156872,-2.346544 -1.615357,-4.12495 -1.737879,-6.74101 -0.1149,-2.453321 0.111416,-4.128584 0.854867,-6.328003 1.965652,-5.815169 6.748601,-10.213133 12.809134,-11.778111 1.56722,-0.404695 1.981119,-0.439713 4.322467,-0.365699 2.990459,0.09453 4.544584,0.439866 6.857609,1.523786 4.908553,2.300226 8.395964,6.505672 9.770937,11.78271 0.448593,1.721664 0.62295,4.893208 0.360968,6.565986 -0.166893,1.065627 -0.299259,1.373743 -0.833523,1.940229 -0.349318,0.370384 -0.842343,1.086037 -1.095611,1.590341 -0.253268,0.504303 -0.49306,0.952457 -0.532869,0.995898 -0.03981,0.04344 -1.697556,-1.538973 -3.683875,-3.516477 -4.426866,-4.407216 -4.743783,-4.598221 -7.62935,-4.598221 -1.712504,0 -1.967856,0.04548 -2.946429,0.524745 -1.37054,0.671238 -2.736967,2.039576 -3.399074,3.403826 -0.471774,0.972077 -0.520433,1.245295 -0.524745,2.946429 -0.0073,2.882434 0.183691,3.199911 4.584399,7.620241 l 3.586393,3.602384 -0.76283,0.205407 c -2.180007,0.587016 -4.982177,0.685604 -7.342296,0.258321 z"
         style="fill:#a0a0a0;stroke:none;stroke-width:0.178571" />
    </g>
  </g>
</svg>
